- 
http://www.Speed.Cd      fast  and The Hottest Private Tracker on the net

   signup is open now

Please Seed back to make the speed Faster!!!

------------------nfo--------------------------
-[align=center]   
                       [/align]
[size=3][color=#009999]


      
     Rampart 2011 DvDScr XVID AC3 - Xtreme Encode



[/color][/size]


[size=3]
[color=#CC9933]General


Complete name                    : Rampart 2011 DvDScr XVID AC3 - Xtreme Encode.avi
Format                           : AVI
Format/Info                      : Audio Video Interleave
Format profile                   : OpenDML
Format settings                  : rec
File size                        : 1.36 GiB
Duration                         : 1h 48mn
Overall bit rate                 : 1 807 Kbps[/color][/size]




[size=3][color=#669900]
Video


ID                               : 0
Format                           : MPEG-4 Visual
Format profile                   : Advanced Simple@L5
Format settings, BVOP            : 2
Format settings, QPel            : No
Format settings, GMC             : No warppoints
Format settings, Matrix          : Default (H.263)
Muxing mode                      : Packed bitstream
Codec ID                         : XVID
Codec ID/Hint                    : XviD
Duration                         : 1h 48mn
Bit rate                         : 1 161 Kbps
Width                            : 720 pixels
Height                           : 304 pixels
Display aspect ratio             : 2.35:1
Frame rate                       : 29.970 fps
Color space                      : YUV
Chroma subsampling               : 4:2:0
Bit depth                        : 8 bits
Scan type                        : Progressive
Compression mode                 : Lossy
Bits/(Pixel*Frame)               : 0.177
Stream size                      : 897 MiB (64%)[/color][/size]







[size=3][color=#009900]Audio


ID                               : 1
Format                           : AC-3
Format/Info                      : Audio Coding 3
Mode extension                   : CM (complete main)
Codec ID                         : 2000
Duration                         : 1h 48mn
Bit rate mode                    : Constant
Bit rate                         : 640 Kbps
Channel(s)                       : 2 channels
Channel positions                : Front: L R
Sampling rate                    : 48.0 KHz
Bit depth                        : 16 bits
Compression mode                 : Lossy
Stream size                      : 495 MiB (35%)
Alignment                        : Aligned on interleaves
Interleave, duration             : 64 ms (1.92 video frames)
Interleave, preload duration     : 192 ms[/color][/size]





[size=3][color=#6699FF]
SOURCE
Video : Rampart.DVD5.DVD-Screener.NTSC 
Audio : Rampart.DVD5.DVD-Screener.NTSC 


SCREEN TOUCH UP:  Tweak(hue / sat / bright / cont / Sharpen :)

I CROPPED in increase the gamma N RESIZED :)[/color][/size]




[size=3][color=#0099CC]PLOT
Set in 1999 Los Angeles, veteran police officer Dave Brown, 
the last of the renegade cops, works to take care of his family, 
and struggles for his own survival.  
 


 [/color][/size]


[size=3][color=#CC6600]Genres: Action | Crime | Drama | Thriller 



Director: Oren Moverman

Writers: James Ellroy, Oren Moverman

Stars: Woody Harrelson, Ben Foster and Sigourney Weaver  [/color][/size]


[size=3][color=#0033FF]IMDB: http://www.imdb.com/title/tt1640548/[/color][/size]



[size=3][color=#996600]HOPE U ALL LIKE THIS IF SO PLS REP :)[/color][/size]


[size=3][color=#CC0000]
SCREENS:




[/color][/size]


[size=3][b][font=Times New Roman][color=#3366CC]
      GREETS:

IMAGiNE / ELEKTRI4KA / FLAWL3SS  
ViSiON / CRYS / BMB / MiSTERE
AMB / FYA / Jamie111 / VISUALiSE  
ILLUMINATI / Rx / REFiLL / BHRG
TO MY FRIENDS  AND ALL OTHER GROUPS  :)[/color][/font][/b][/size]